HIERARCHY
ROOT Hips
{
  OFFSET -125.086 92.215 135.881
  CHANNELS 6 Xposition Yposition Zposition Zrotation Xrotation Yrotation
  JOINT LeftUpLeg
  {
    OFFSET 8.64259 1.95398 -2.38835
    CHANNELS 3 Zrotation Xrotation Yrotation
    JOINT LeftLeg
    {
      OFFSET 43.7702 0 0
      CHANNELS 3 Zrotation Xrotation Yrotation
      JOINT LeftFoot
      {
        OFFSET 40.6238 0 0
        CHANNELS 3 Zrotation Xrotation Yrotation
        JOINT LeftToeBase
        {
          OFFSET 12.7242 0 0
          CHANNELS 3 Zrotation Xrotation Yrotation
          End Site
          {
            OFFSET 0 0 0
          }
        }
      }
    }
  }
  JOINT RightUpLeg
  {
    OFFSET -8.2249 1.95398 -2.59336
    CHANNELS 3 Zrotation Xrotation Yrotation
    JOINT RightLeg
    {
      OFFSET 43.5653 0 0
      CHANNELS 3 Zrotation Xrotation Yrotation
      JOINT RightFoot
      {
        OFFSET 40.6238 0 0
        CHANNELS 3 Zrotation Xrotation Yrotation
        JOINT RightToeBase
        {
          OFFSET 12.7242 0 0
          CHANNELS 3 Zrotation Xrotation Yrotation
          End Site
          {
            OFFSET 0 0 0
          }
        }
      }
    }
  }
  JOINT Spine
  {
    OFFSET 0.165834 0.87714 6.61349
    CHANNELS 3 Zrotation Xrotation Yrotation
    JOINT Spine1
    {
      OFFSET 7.38963 1.71661e-005 0
      CHANNELS 3 Zrotation Xrotation Yrotation
      JOINT Spine2
      {
        OFFSET 11.9445 1.14441e-005 0
        CHANNELS 3 Zrotation Xrotation Yrotation
        JOINT Spine3
        {
          OFFSET 14.7254 4.19617e-005 0
          CHANNELS 3 Zrotation Xrotation Yrotation
          JOINT Spine4
          {
            OFFSET 10.9679 0 0
            CHANNELS 3 Zrotation Xrotation Yrotation
            JOINT RightShoulder
            {
              OFFSET 2.46616 -1.6653 3.69651
              CHANNELS 3 Zrotation Xrotation Yrotation
              JOINT RightArm
              {
                OFFSET 13.0012 0 0
                CHANNELS 3 Zrotation Xrotation Yrotation
                JOINT RightForeArm
                {
                  OFFSET 28.7848 1.52588e-005 0
                  CHANNELS 3 Zrotation Xrotation Yrotation
                  JOINT RightHand
                  {
                    OFFSET 26.5688 1.52588e-005 0
                    CHANNELS 3 Zrotation Xrotation Yrotation
                    End Site
                    {
                      OFFSET 0 0 0
                    }
                  }
                }
              }
            }
            JOINT LeftShoulder
            {
              OFFSET 2.38034 -1.29275 -3.7523
              CHANNELS 3 Zrotation Xrotation Yrotation
              JOINT LeftArm
              {
                OFFSET 16.3182 6.10352e-005 0
                CHANNELS 3 Zrotation Xrotation Yrotation
                JOINT LeftForeArm
                {
                  OFFSET 27.0901 0 0
                  CHANNELS 3 Zrotation Xrotation Yrotation
                  JOINT LeftHand
                  {
                    OFFSET 24.5451 1.52588e-005 0
                    CHANNELS 3 Zrotation Xrotation Yrotation
                    End Site
                    {
                      OFFSET 0 0 0
                    }
                  }
                }
              }
            }
            JOINT Neck
            {
              OFFSET 5.0226 -0.0266342 0
              CHANNELS 3 Zrotation Xrotation Yrotation
              JOINT Head
              {
                OFFSET 6.69363 2.86102e-005 0
                CHANNELS 3 Zrotation Xrotation Yrotation
                End Site
                {
                  OFFSET 0 0 0
                }
              }
            }
          }
        }
      }
    }
  }
}
MOTION
Frames:	7
Frame Time:	0.0416667
-7.061 96.7478 0.764057 112.971 -85.8111 113.159 -174.66 3.26292 91.4523 -14.3085 7.75063 3.10978 64.9178 5.4617 -0.285556 32.9688 -0.545781 2.36565 174.731 3.00238 88.1053 -14.9957 -2.78792 -0.165539 66.1293 -4.80692 1.48213 32.0151 -0.320053 -2.66207 -0.285425 7.1888 -90.2128 12.4953 -0.668342 -0.347862 0.824467 -0.682999 -0.31811 -21.7113 -0.532896 -0.532636 -1.69863 -0.532896 -0.532647 110.822 -52.4472 -69.0915 29.0384 0.619368 -13.1356 1.88373 -30.2065 -9.0342 -8.81539 -0.334549 -0.806503 -73.799 -47.8146 103.178 -45.1492 -7.67556 -22.8851 5.32029 52.7097 0.0132626 -4.58565 -0.00985783 -8.54436 10.8721 -0.94876 3.74956 -18.9759 -1.30776 -3.75405 
-7.10198 96.7833 0.765769 117.296 -85.9142 117.296 -174.701 2.68017 91.3223 -13.6846 6.62851 3.11852 65.0931 5.30574 -2.00511 32.2477 -0.622051 3.81074 174.571 2.63952 87.9025 -14.7149 -3.17961 -0.164045 66.1874 -5.03942 1.0912 32.1605 -0.391745 -1.99254 -0.280479 7.21908 -90.1859 12.4349 -0.645669 -0.297279 0.764107 -0.658126 -0.268579 -21.7717 -0.52648 -0.47759 -1.75905 -0.526478 -0.477592 110.952 -52.5849 -68.9186 28.7181 -0.600552 -13.2354 2.3308 -27.0485 -9.48354 -11.0104 -0.30431 -2.06374 -73.4979 -48.1586 103.62 -44.264 -7.24098 -22.4359 5.05095 50.9176 -0.452756 -2.28431 -0.0926704 -9.85227 11.2481 -0.688859 4.19375 -19.5448 -1.05998 -4.41096 
-7.1112 96.7676 0.670753 117.732 -86.1686 118.026 -174.511 3.08974 91.6169 -14.1831 6.82276 3.07934 65.0803 5.31738 -1.53558 32.7713 -0.632904 3.611 174.713 2.93896 88.2088 -14.911 -3.4136 -0.0875987 65.861 -4.92477 0.784064 32.3235 -0.436821 -1.74178 -0.263046 7.21634 -90.2033 12.4403 -0.619234 -0.334967 0.769448 -0.633382 -0.307384 -21.7662 -0.489944 -0.505587 -1.75352 -0.489944 -0.50559 110.961 -52.7998 -68.9402 28.3924 -0.846219 -13.4095 2.39866 -26.6239 -9.76203 -10.687 -0.313458 -1.84728 -72.9546 -48.4768 104.435 -43.5163 -6.96757 -22.6611 4.91925 50.9974 -1.11184 -2.54962 -0.0826971 -9.34757 11.2179 -0.779197 3.54619 -19.3474 -1.14946 -3.33413 
-7.16099 96.7466 0.619003 119.903 -86.1745 120.201 -174.426 2.9926 91.675 -14.1933 6.66717 3.04032 65.3195 5.47313 -1.57806 32.2728 -0.576268 3.26337 174.718 2.65339 88.2178 -14.6123 -3.397 -0.119098 66.1298 -5.09866 1.01859 31.8746 -0.362615 -1.71146 -0.251467 7.22876 -90.2158 12.4154 -0.602194 -0.362133 0.744507 -0.617545 -0.335277 -21.791 -0.465524 -0.526367 -1.77833 -0.465529 -0.526387 110.897 -52.6667 -69.0142 28.371 -0.785265 -13.4382 2.38896 -26.7898 -9.74299 -10.5829 -0.308947 -1.8613 -72.5249 -48.9038 105.058 -43.3309 -7.06943 -22.746 5.3478 51.2875 -1.61867 -2.99311 -0.0612499 -9.81956 10.8166 -0.663043 3.9882 -19.1621 -1.07075 -3.78898 
-7.1732 96.7475 0.585098 119.964 -86.1445 120.205 -174.48 3.07919 91.6052 -14.3546 6.97238 3.0441 65.0639 5.35687 -1.33838 32.6595 -0.626888 3.605 174.542 2.80388 88.0967 -14.8258 -3.80392 0.0572982 65.9838 -5.06003 0.65885 32.2815 -0.41508 -1.96311 -0.255845 7.2367 -90.2 12.3996 -0.603361 -0.330589 0.728745 -0.617329 -0.303713 -21.8068 -0.476115 -0.496642 -1.7942 -0.476118 -0.496648 110.906 -52.7329 -69.0106 28.4781 -0.635002 -13.3435 2.35429 -27.2276 -9.61334 -10.947 -0.361201 -1.3988 -72.3185 -49.1284 105.353 -43.4344 -7.27297 -22.7128 5.14892 50.7738 -1.16158 -1.71242 -0.120965 -9.65098 10.6986 -0.79557 3.76326 -18.9326 -1.17504 -3.61561 
-7.19442 96.7492 0.470492 120.946 -85.9579 121.17 -174.57 3.12284 91.5957 -14.6126 6.68401 3.14268 65.291 5.41891 -1.84611 32.4614 -0.641378 3.90478 174.606 2.75833 88.1606 -14.9448 -3.7988 -0.021896 65.9177 -5.10734 0.23638 32.4393 -0.460018 -1.69977 -0.260018 7.26405 -90.1761 12.345 -0.600228 -0.283502 0.674222 -0.612124 -0.256816 -21.8615 -0.487274 -0.450791 -1.84883 -0.487278 -0.450797 111.115 -53.1344 -68.7634 28.037 -0.825562 -13.0619 2.52703 -26.9646 -9.62345 -10.6105 -0.342839 -1.48635 -72.445 -48.8934 105.182 -43.4108 -7.30031 -22.4172 5.27737 50.4912 -1.54428 -2.40126 -0.0891671 -9.05327 10.7199 -0.943286 3.53283 -18.7038 -1.26218 -3.70513 
-7.2096 96.755 0.414077 121.852 -85.8436 122.08 -174.534 3.02708 91.6196 -14.5649 7.08312 3.14378 65.0888 5.38427 -1.56375 32.7016 -0.652493 3.88823 174.592 2.51185 88.1267 -14.6738 -3.33458 -0.0432914 66.1444 -5.10569 1.07936 31.745 -0.313652 -2.06444 -0.244644 7.28616 -90.1896 12.3007 -0.576073 -0.313505 0.629863 -0.58931 -0.287851 -21.9057 -0.45522 -0.472149 -1.89304 -0.455223 -0.472153 111.143 -53.0034 -68.6999 28.1686 -0.271214 -12.8412 2.39413 -27.3379 -9.23638 -10.3518 -0.322286 -1.62917 -72.4223 -49.0618 105.201 -43.371 -7.36711 -22.2443 5.11597 50.7742 -1.30795 -2.53297 -0.0835553 -9.04863 10.7315 -0.966346 3.61354 -18.4858 -1.32507 -3.5965 
